<?xml version="1.0" encoding="utf-8"?>
<!DOCTYPE svg PUBLIC "-//W3C//DTD SVG 1.0//EN" "http://www.w3.org/TR/2001/REC-SVG-20010904/DTD/svg10.dtd">
<svg version="1.0" xmlns="http://www.w3.org/2000/svg" width="938px" height="970px" viewBox="0 0 938 970" preserveAspectRatio="xMidYMid meet">
 <g fill="#082931">
  <path d="M72.5 778 c-24.8 -0.8 -58.8 -2.6 -67.3 -3.6 l-5.3 -0.6 0.3 -7.2 0.3 -7.1 6 -0.7 c10.9 -1.2 58.6 -2 59.9 -0.9 0.6 0.5 5.1 1.5 9.9 2.1 4.8 0.6 9.9 1.5 11.3 2 1.4 0.6 6.3 1 10.8 1 4.5 0 10.8 0.5 13.9 1.1 5.5 1.1 5.7 1.3 5.7 4.4 0 1.9 -0.6 3.5 -1.4 3.8 -0.8 0.3 -1.6 1.8 -1.8 3.4 l-0.3 2.8 -9.5 0.1 c-5.2 0.1 -19.8 -0.2 -32.5 -0.6z"/>
  <path d="M461.5 737 c-91.8 -0.4 -183.2 -1.3 -203 -1.9 -46.8 -1.5 -84.8 -2.9 -111.2 -4.1 -39.9 -1.9 -66.8 -3 -78 -3 l-11.3 0 0 -3.4 c0 -3.3 0.1 -3.4 4.8 -4 7.3 -0.9 45.3 -3.4 69.2 -4.5 39.8 -1.9 66.1 -2.4 158.4 -3 l91.9 -0.6 -2.7 -3.2 -2.8 -3.3 -114.2 0 c-62.9 0 -124.5 -0.3 -136.9 -0.7 l-22.7 -0.6 0 -3.2 0 -3.2 7.1 -0.7 c6.6 -0.6 30.6 -4.1 35.6 -5.1 2 -0.5 2.2 -0.9 1.6 -5.5 l-0.6 -5 111.2 0 111.2 0 -0.3 -3.7 -0.3 -3.8 -140.5 -0.6 c-77.3 -0.3 -140.6 -0.6 -140.7 -0.7 -0.2 -0.1 -0.3 -1.8 -0.3 -3.7 0 -3 0.3 -3.5 2.3 -3.5 1.2 0 11 -1.7 21.7 -3.9 l19.5 -3.8 0.3 -3.5 0.3 -3.5 9.1 -0.7 c5 -0.3 58.5 -0.6 119 -0.6 l109.8 0 0 -3.4 0 -3.4 -6.1 -0.7 c-3.4 -0.4 -73 -0.4 -154.9 0 -137.6 0.6 -148.8 0.5 -150.3 -1 -1.3 -1.3 -1.7 -3.6 -1.7 -10.4 0 -13.3 -1.6 -12.5 26.5 -12.9 l23.7 -0.4 -0.7 -4.6 c-1.4 -9.6 0.9 -8.8 -26.6 -9.6 -13.3 -0.4 -24.6 -0.9 -25.1 -1.2 -0.4 -0.3 -0.8 -5.4 -0.8 -11.4 0 -10 0.2 -11 2.1 -12 1.4 -0.8 38.4 -1.3 125.2 -1.7 89.4 -0.4 123.4 -0.9 124 -1.7 0.4 -0.6 0.6 -3.8 0.5 -7.1 l-0.3 -6 -104.3 -0.5 -104.4 -0.5 -1.9 -2.4 c-2.9 -3.6 -2.7 -15.1 0.4 -18.5 l2.2 -2.6 50 -1.2 c27.5 -0.6 74.3 -1.3 104 -1.5 l54 -0.3 0 -7.8 0 -7.7 -103 -0.6 c-56.7 -0.3 -109.2 -0.7 -116.7 -0.8 l-13.8 -0.1 0 -3.5 c0 -2.7 0.4 -3.5 1.9 -3.5 2.1 0 5.1 -6.7 5.1 -11.6 l0 -3.1 38.3 -0.7 c21 -0.4 41.8 -1.1 46.2 -1.7 4.4 -0.6 38.2 -1.3 75 -1.7 l67 -0.7 0.3 -7.9 0.3 -7.8 -117.8 0.6 c-64.8 0.4 -120.3 0.3 -123.3 -0.1 l-5.5 -0.8 -0.7 -6.5 c-1.1 -9.9 0 -16.8 2.8 -18.6 2 -1.4 17.1 -1.6 123.4 -2.1 l121.1 -0.6 -0.3 -7.6 -0.3 -7.6 -125.8 -0.3 -125.8 -0.2 0.3 -12.7 0.3 -12.7 3 -0.8 c1.7 -0.5 58.2 -1.2 125.7 -1.5 l122.6 -0.6 -1.4 -4.1 c-1.9 -5.3 -5.7 -9.2 -11.1 -11.2 -4 -1.6 -13.2 -1.7 -115 -1.2 -62.4 0.4 -111.7 0.2 -113 -0.3 -2.1 -0.8 -2.3 -1.4 -2.3 -8.3 0 -4.1 0.4 -8.6 1 -10 0.6 -1.7 0.6 -2.6 0 -2.6 -0.6 0 -1 -1.6 -1 -3.5 l0 -3.5 96.3 -0.2 c146.9 -0.4 146.6 -0.4 158.9 5.8 7.8 3.9 16.8 13.5 21.1 22.4 6.7 13.5 6.7 13.7 6.7 105.1 l0 81.9 38.3 -0.2 38.2 -0.3 0.3 -79.2 0.2 -79.3 3.5 0 c6.2 0 7.8 2.4 44 65.5 9.8 17.1 21.5 37.3 26 45 4.5 7.7 9.7 16.8 11.6 20.3 2 3.7 4 6.2 5 6.2 1.1 0 5.9 -7.4 14.5 -22.2 7 -12.3 21.3 -37.1 31.8 -55.3 10.4 -18.1 20.5 -35.8 22.5 -39.3 1.9 -3.4 5.8 -9.3 8.6 -13 4.7 -6.2 5.5 -6.7 9.3 -7 l4.2 -0.3 0.2 79.3 0.3 79.3 19.5 0.3 c10.7 0.2 27.7 0 37.8 -0.3 l18.2 -0.7 0 -83.9 0 -83.9 45.5 0 45.5 0 0 -32 0 -32 -104.5 0 c-73 0 -106 0.3 -109.7 1.1 -13.6 2.9 -23.7 11.7 -34.6 30.2 -6 10.3 -6.4 10.7 -9.7 10.7 -3.2 0 -3.6 -0.5 -10.1 -11.3 -8.6 -14.2 -18.2 -24.2 -26.9 -27.8 l-6 -2.4 -189.6 -0.3 -189.7 -0.2 -1.5 -3.9 c-0.9 -2.1 -1.6 -6.9 -1.6 -10.8 l0 -7 6.1 -0.7 c9.7 -1 381.6 -0.7 387.8 0.3 11.4 1.9 16.9 4.7 24.9 12.8 l7.3 7.6 2.7 -3.4 c4.5 -5.8 8.4 -9 14.7 -12 12.5 -6 9.8 -5.9 145.6 -5.9 l124.1 0 -0.6 11.3 c-0.4 6.1 -0.7 32 -0.7 57.5 l0 46.2 -30 0 -30 0 0 79.5 c0 43.7 0.1 79.5 0.3 79.5 0.1 0 2.7 -0.7 5.7 -1.5 3 -0.8 11 -2 17.8 -2.7 34 -3.4 61.7 7.6 76.8 30.3 9.8 14.8 13.1 29.1 12.1 51.6 l-0.7 13.3 4.5 0 4.5 0 0 4 c0 4 -3.1 11.5 -7.2 17.3 -1.1 1.6 -1.9 2.9 -1.7 3.1 0.2 0.1 7.4 1 15.9 2 20.1 2.2 37.5 5.3 41.7 7.3 3 1.4 3.3 1.9 3.3 5.9 0 3.7 -0.4 4.6 -2.3 5.3 -7.2 2.8 -39.1 5.3 -92.7 7.5 -48.9 2 -153.3 2.5 -354.5 1.6z m-7 -22.2 c11.3 -2.8 25.3 -13.2 32.3 -24 14 -21.7 11.2 -47.1 -7.2 -65.3 -11 -10.9 -21.7 -15.5 -36.1 -15.5 -29.1 0 -54.3 27.1 -52.2 56 1.4 19 13.4 36.3 31.2 45.1 11.3 5.5 20.3 6.6 32 3.7z m339.7 -3.6 c13.7 -6.6 23.2 -16.6 28.9 -30.1 6.1 -14.4 5.7 -26.8 -1.2 -41 -7.2 -14.6 -19.3 -24.3 -35.5 -28.5 -21.4 -5.5 -45.7 5.4 -56.2 25.2 l-3.3 6.2 -24 0 -23.9 0 0 4 0 4 23.5 0 23.5 0 0 11.9 0 12 -23.5 -0.5 -23.5 -0.5 0 4.1 0 4 24 0 24 0 3.1 6.3 c4.1 8.1 13.4 17.1 22.5 21.9 9.4 5 13.1 5.8 24 5.4 8.3 -0.3 9.9 -0.7 17.6 -4.4z m-254.2 -32.7 c0 -3.9 1 -3.6 -12.2 -3.8 l-8.3 -0.1 -0.3 3.7 -0.3 3.7 10.5 0 10.6 0 0 -3.5z m59 -16 l0 -19.5 -18 0 -18 0 0 18.8 c0 10.4 0.3 19.2 0.7 19.5 0.3 0.4 8.4 0.7 18 0.7 l17.3 0 0 -19.5z m54.1 18.3 c0.2 -0.7 0.3 -9.5 0.1 -19.5 l-0.3 -18.3 -16.4 0 -16.5 0 0 19.5 0 19.5 16.4 0 c12.3 0 16.5 -0.3 16.7 -1.2z m-113.1 -33.8 l0 -4 -10.5 0 -10.5 0 0 4 0 4 10.5 0 10.5 0 0 -4z m-161.6 -33 c0.9 -2.2 1.6 -5.6 1.6 -7.5 l0 -3.5 -133.5 0 c-73.4 0 -133.5 0.3 -133.5 0.6 0 0.3 0.8 1.8 1.9 3.2 1 1.5 2.8 4.6 4 7 l2.1 4.2 127.9 0 127.9 0 1.6 -4z m325.6 -3.5 l0 -7.5 -70.5 0 -70.5 0 0 -34.2 -0.1 -34.3 -6 6.5 c-7.1 7.6 -25.7 30.7 -35 43.2 -6 8.2 -6.6 8.8 -10 8.8 -3.5 0 -4 -0.5 -14.6 -14.7 -12.1 -16.3 -24.8 -31.6 -31.3 -37.8 l-4.2 -4 0.7 25 c0.4 13.8 1 25.3 1.4 25.6 0.3 0.3 3.3 1.3 6.6 2.3 3.3 1 8.7 3.3 12.1 5.2 6.7 3.7 17 14 19.8 19.7 l1.7 3.7 99.9 0 100 0 0 -7.5z"/>
  <path d="M429.9 696.7 c-11.8 -4.4 -19.9 -14.9 -19.9 -25.9 0 -2.5 0.3 -2.8 3.4 -2.8 1.8 0 6 -0.3 9.2 -0.6 l5.9 -0.6 3.2 4.5 c3.9 5.6 8.4 8.1 13 7.4 4.3 -0.7 8.9 -4 10.8 -7.8 l1.6 -2.9 9.9 0 10 0 0 2.8 c0 8.5 -6.9 18.6 -16.1 23.7 -4.9 2.7 -6.4 3 -16.4 3.2 -7.4 0.2 -12.2 -0.1 -14.6 -1z"/>
  <path d="M412 655.8 c0 -9.2 5.3 -16.8 14.8 -21.5 5.2 -2.5 6.7 -2.8 16.2 -2.8 8.8 0 11.3 0.4 15.7 2.4 8.8 3.9 16.3 13.7 16.3 21.1 l0 3 -9.4 0 c-8.4 0 -9.7 -0.2 -12.3 -2.4 -4 -3.3 -6.8 -4.6 -9.8 -4.6 -3.2 0 -9.3 3 -11.9 5.9 -1.7 1.8 -3 2.1 -10.8 2.1 l-8.8 0 0 -3.2z"/>
  <path d="M761.3 696.6 c-12.7 -4 -21.3 -16.5 -21.3 -30.7 0 -12.9 4.3 -22.3 13.1 -28.6 13.8 -9.8 37.3 -7.3 47.2 5 5.9 7.3 7.1 10.4 7.5 20.7 0.3 8 0 10.4 -1.8 15.4 -3 7.9 -9.6 14.6 -17.3 17.5 -6.7 2.5 -20.5 2.8 -27.4 0.7z m20.9 -21.3 c3.6 -3.4 5.8 -7.4 5.8 -10.6 0 -5.4 -8.5 -13.7 -14 -13.7 -5.6 0 -14 8.4 -14 14 0 3.5 3.6 8.8 8 11.8 4.6 3.1 10 2.5 14.2 -1.5z"/>
  <path d="M777.3 550 c-7 -4.2 -6.8 -2.3 -7.1 -53.7 l-0.3 -46.3 46.4 0 46.4 0 5.7 8.1 c4.5 6.4 5.6 8.8 5.4 11.3 l-0.3 3.1 -43.2 0.3 -43.3 0.2 0 39.5 0 39.5 -3.2 0 c-1.8 0 -4.7 -0.9 -6.5 -2z"/>
 </g>
 <g fill="#385962">
  <path d="M0 869.9 c0 -90.1 0.2 -100.1 1.6 -99.5 3.5 1.4 64.4 4.8 79.8 4.6 6.1 -0.2 14.8 0.1 19.3 0.5 4.4 0.4 8.9 0.5 9.8 0.1 1.7 -0.6 1.7 -0.7 0 -2.6 -1.7 -1.8 -1.6 -2 1.6 -3.3 l3.4 -1.4 -6.9 -1.3 c-4 -0.7 -9.5 -1 -13.2 -0.7 -4.4 0.4 -7.4 0.2 -9.7 -0.8 -1.9 -0.8 -7.4 -1.9 -12.3 -2.5 -4.8 -0.6 -9.3 -1.5 -9.9 -2 -1.1 -0.9 -41.8 -0.6 -50 0.4 -2.2 0.3 -6.1 0.8 -8.7 1.1 l-4.8 0.6 0 -381.5 0 -381.6 469 0 469 0 0 485 0 485 -469 0 -469 0 0 -100.1z m813 -137.5 c53.6 -2.2 85.5 -4.7 92.7 -7.5 1.3 -0.5 2.3 -1.5 2.3 -2.3 0 -3.4 -11.4 -6.2 -40.1 -9.6 -9.6 -1.1 -19.1 -2.3 -21.1 -2.6 l-3.8 -0.6 3.9 -5.6 c4.1 -6.1 9.1 -15.5 9.1 -17.2 0 -0.5 -0.7 -1 -1.5 -1 -0.8 0 -1.5 -0.7 -1.5 -1.5 0 -1.3 4 -1.5 27.8 -1.7 l27.7 -0.3 0.3 -77.1 0.2 -77.1 -9.2 -12.6 c-5.1 -6.9 -13.9 -18.8 -19.6 -26.6 -5.7 -7.7 -10.9 -14.7 -11.7 -15.5 -2.1 -2 -1.9 -3.3 0.5 -3.9 1.9 -0.5 1.6 -1.2 -3.6 -8.6 l-5.7 -8.1 -43.4 0 c-37.8 0 -43.3 0.2 -43.3 1.5 0 0.8 -0.7 1.5 -1.5 1.5 -1 0 -1.5 -1.1 -1.5 -3.5 l0 -3.5 41.7 -0.2 41.7 -0.3 -6.5 -6.6 c-9.4 -9.8 -14 -11.3 -32.5 -10.6 -7.8 0.3 -15.1 1 -16.2 1.6 -1.4 0.7 -11.8 1.1 -31.1 1.1 l-29.1 0 0 2.5 c0 1.6 -0.6 2.5 -1.5 2.5 -0.8 0 -1.5 -0.6 -1.5 -1.3 0 -0.8 -1.1 -2.4 -2.5 -3.7 -1.3 -1.2 -2.2 -2.7 -1.9 -3.1 0.3 -0.5 14.9 -0.9 32.5 -0.9 l31.9 0 0 -47.7 c0 -26.3 0.3 -50.8 0.7 -54.5 l0.6 -6.8 -121.1 0 c-131.3 0 -129.8 -0.1 -141.9 5.5 -7.2 3.2 -10.7 6.3 -17 14.6 l-5.1 6.8 -1.3 -3.1 c-0.7 -1.8 -4.5 -6.4 -8.3 -10.4 -7.6 -7.7 -13.3 -10.6 -24.6 -12.5 -6.2 -1 -372.2 -1.3 -381.9 -0.3 -3.4 0.4 -5.7 1 -5.1 1.4 0.8 0.5 0.9 1.7 0.2 4.2 -0.7 2.5 -0.5 4.4 0.5 7.1 l1.5 3.7 44.9 0 c44.2 0 44.9 0 44.9 2 0 2 -0.7 2 -38.6 2 l-38.6 0 0.6 2.3 c0.3 1.2 1.1 4.8 1.7 7.9 l1.1 5.7 96.7 0.4 c86.9 0.3 97.2 0.5 102.1 2 8.1 2.4 13 4.8 13 6.4 0 0.7 0.9 1.3 2 1.3 1.6 0 2 0.7 2 3.1 l0 3.1 -3.2 -2.4 c-5.2 -3.9 -11.2 -6.7 -18 -8.3 -7.7 -1.7 -16.9 -1.8 -141.7 -1.6 -77.7 0.1 -96.1 0.3 -94.8 1.4 1.6 1.1 1.6 1.6 0.2 6.2 -0.8 2.8 -1.5 6.9 -1.5 9.3 0 3.7 0.3 4.4 2.7 5.3 1.7 0.6 12.6 1 28.7 0.8 l25.9 -0.2 3 10.7 c1.6 5.9 2.6 11 2.2 11.4 -0.3 0.4 -16 0.9 -34.8 1.2 -18.8 0.3 -34.8 0.9 -35.4 1.3 -0.9 0.6 -1.3 3.8 -1.3 10.3 l0 9.4 38 0 38 0 -0.2 2.8 c-0.1 1.5 0.9 6.2 2.2 10.5 1.3 4.2 2 8.1 1.6 8.5 -0.4 0.4 -16.7 0.9 -36.1 1.2 -31 0.4 -35.6 0.7 -37.1 2.1 -1.2 1.3 -1.6 3.5 -1.5 9.5 0 4.3 0.6 8.3 1.1 8.8 0.8 0.8 24.4 1.1 76.1 1.1 71.2 -0.1 74.9 0 74.9 1.7 0 1.6 -1.2 1.8 -12.5 1.8 l-12.5 0 0 8.9 0 8.9 -4.8 0.6 c-15.6 2 -33.9 2.9 -66.2 3.5 -28.8 0.5 -36 0.9 -34 1.8 1.4 0.7 2 1.2 1.4 1.2 -1.2 0.1 -5.1 6.7 -5.6 9.6 -0.2 1.1 -1.4 2.3 -2.8 2.6 -3.5 0.9 10.7 1.1 128.5 1.8 l103 0.6 0.1 10.8 c0.1 9.8 0 10.7 -1.7 10.7 -1.7 0 -1.9 -0.9 -1.9 -9 l0 -9 -58 0 -58 0 0 7.5 0 7.5 7.5 0 c5.7 0 7.5 0.3 7.5 1.4 0 0.7 -1 1.7 -2.3 2 -1.2 0.4 -24.5 1.2 -51.7 1.7 l-49.5 0.9 -2.2 2.6 c-2.9 3.2 -3.1 9.2 -0.4 12.5 l1.9 2.4 83.1 0.3 83.1 0.2 0 10.5 0 10.5 -39.7 0 c-82.6 0.1 -165.8 1.2 -167.5 2.1 -1.5 0.8 -1.8 2.3 -1.8 9 0 5.5 0.4 8.1 1.3 8.4 2.2 0.8 49.7 2 49.7 1.3 0 -0.5 1.1 -0.8 2.4 -0.8 1.8 0 2.9 1.1 4.7 4.8 1.3 2.6 2.6 4.9 2.9 5.2 1.3 1.2 5 8.2 5 9.6 0 2.7 -3.9 1.5 -5.6 -1.8 -3.1 -6.1 -8.7 -14.8 -9.2 -14.3 -0.3 0.2 0 1 0.5 1.7 0.6 0.7 1.1 2.9 1.2 4.8 0.4 6.2 0.7 7.8 2 9.3 1 1.3 -1.8 1.6 -23.9 1.9 -29 0.4 -28 0 -28 9.9 0 9.4 -2.1 8.9 37.9 8.9 l34.8 0 2.7 5 2.7 5 6 0 c4.4 0 5.9 0.4 5.9 1.4 0 1.7 -3.1 2.6 -9.7 2.6 l-5.2 0 -0.3 3.6 -0.3 3.7 -19.5 3.8 c-10.7 2.2 -20.6 4 -22 4.1 -9.8 0.7 34 1.6 81.3 1.7 56 0.1 56.7 0.1 56.7 2.1 0 2 -0.7 2 -39.5 2 -21.7 0 -39.5 0.3 -39.5 0.8 0.1 0.4 0.7 1.8 1.5 3.2 2 3.6 1.9 6 -0.4 6 -1.9 0 -1.9 0.2 -0.4 4.6 0.8 2.5 1.3 4.7 1.1 4.9 -0.5 0.5 -31.3 5.3 -40.2 6.3 -13.7 1.4 24.9 2 147.3 2.1 l119.5 0.1 6.3 6.8 c3.5 3.7 6.3 6.7 6.3 6.7 0 0 -26.4 -0.1 -58.7 -0.3 -96.4 -0.5 -181.7 1.4 -241.8 5.4 -28.9 1.9 -36.1 3.1 -19.5 3.3 11.8 0.1 40.9 1.3 78.3 3.1 26.4 1.2 64.4 2.6 111.2 4.1 41.9 1.3 336.6 2.8 442.5 2.2 39.9 -0.2 88.9 -1.1 109 -1.9z"/>
  <path d="M433.8 719 c-6.6 -1.1 -12.8 -3.4 -12.8 -4.9 0 -1.5 3.9 -1.4 10.7 0.4 3.1 0.8 8.2 1.5 11.3 1.5 3.1 0 8.2 -0.7 11.3 -1.5 7.1 -1.9 11 -1.9 10.5 -0.2 -1.2 3.5 -20.1 6.4 -31 4.7z"/>
  <path d="M766 718.9 c-14.9 -2.1 -32.2 -14.3 -38.9 -27.6 -1.7 -3.5 -3.8 -6.3 -4.6 -6.3 -0.8 0 -1.5 -0.7 -1.5 -1.5 0 -1 1 -1.5 3.4 -1.5 3.6 0 4.6 1.2 4.6 5.6 0 1.3 0.6 2.4 1.3 2.4 0.8 0 2 1.2 2.8 2.7 0.8 1.5 3.3 4.5 5.7 6.6 2.3 2.2 4.2 4.6 4.2 5.3 0 0.8 0.9 1.4 2 1.4 1.1 0 2 0.5 2 1 0 0.6 0.6 1 1.4 1 0.8 0 2.1 0.6 2.8 1.3 1.9 1.8 7.4 3.8 15.5 5.5 5.9 1.3 8.4 1.4 13.7 0.5 6.1 -1 20.7 -6.9 21.4 -8.5 0.2 -0.5 0.9 -0.8 1.5 -0.8 0.7 0 1.8 -0.9 2.5 -2 0.7 -1.1 2.3 -2 3.6 -2 1.9 0 2.5 -0.6 2.8 -2.7 0.2 -1.7 1.2 -3.2 2.6 -3.8 1.2 -0.5 2.2 -1.7 2.2 -2.7 0 -0.9 0.4 -1.8 0.8 -2 1.1 -0.5 6.3 -12.4 7.8 -18.2 1.8 -6.5 1.8 -15.7 0 -22.1 -1.4 -5.4 -6.6 -16.8 -7.8 -17.3 -0.5 -0.2 -0.8 -1.2 -0.8 -2.3 0 -1 -0.6 -1.9 -1.4 -1.9 -0.7 0 -3 -1.8 -5 -4 -2 -2.2 -4 -4 -4.4 -4 -0.5 0 -1.7 -0.8 -2.8 -1.8 -3.2 -3 -17.5 -8.2 -22.6 -8.2 -2.1 0 -2.8 -0.5 -2.8 -2 0 -2.5 2.8 -2.6 11.4 -0.4 27.5 7 44.5 32.3 40.7 60.4 -3.5 25.8 -23.6 46.6 -48.4 49.9 -4.3 0.6 -8.1 1 -8.5 1 -0.4 -0.1 -3.6 -0.5 -7.2 -1z"/>
  <path d="M412.1 709.9 c-9.7 -6.9 -18.2 -18.3 -21.5 -28.4 -2 -6.2 -3.6 -17.7 -2.9 -20.5 1.1 -4.3 3 -2 3.6 4.4 0.3 3.6 1.8 9.9 3.2 14.1 1.4 4.1 2.5 8.2 2.5 9 0 0.8 0.7 1.5 1.5 1.5 0.8 0 1.5 0.6 1.5 1.4 0 0.8 0.7 1.6 1.5 2 0.8 0.3 1.5 1.7 1.5 3.1 0 1.7 0.5 2.5 1.8 2.5 2.3 0 4.2 1.9 4.2 4.2 0 1.3 0.8 1.8 2.5 1.8 1.4 0 2.8 0.7 3.1 1.5 0.4 0.8 1.2 1.5 2 1.5 0.8 0 1.4 1 1.4 2.5 0 3.2 -0.8 3.2 -5.9 -0.6z"/>
  <path d="M468 710.5 c0 -1.6 0.6 -2.5 1.5 -2.5 0.8 0 1.5 -0.4 1.5 -1 0 -0.5 0.9 -1 2 -1 1.1 0 2 -0.6 2 -1.4 0 -0.7 2.3 -3.4 5 -6 2.8 -2.6 5 -5.1 5 -5.6 0 -0.6 0.5 -1 1 -1 0.6 0 1 -0.7 1 -1.5 0 -0.8 0.4 -1.5 0.8 -1.5 0.9 0 3.8 -7.2 5.8 -14.5 1.6 -6 1.8 -18.4 0.3 -24 -1.4 -5.1 -6.1 -15.9 -7.1 -16.3 -0.4 -0.2 -0.8 -1 -0.8 -1.7 0 -0.7 -0.7 -1.5 -1.5 -1.9 -1 -0.3 -1.5 -1.9 -1.5 -4.3 l0.1 -3.8 3.5 3.9 c8.3 9.5 13.1 24.9 12.1 39.6 -1.2 18.4 -9.4 33.1 -24.6 43.9 -5.3 3.8 -6.1 3.8 -6.1 0.6z"/>
  <path d="M434.5 698.4 c-4.7 -1.1 -10.5 -3.6 -10.5 -4.5 0 -0.5 -0.7 -0.9 -1.5 -0.9 -1 0 -1.5 -1 -1.5 -3 0 -2.7 -0.3 -3 -3.1 -3 -2.2 0 -3.2 -0.5 -3.6 -2 -0.3 -1.1 -0.9 -2 -1.4 -2 -1.2 0 -2.9 -6.8 -2.9 -11.7 l0 -4.3 8.5 0 c5 0 8.5 0.4 8.5 1 0 0.6 0.9 1 2 1 1.1 0 2 0.5 2 1 0 1.4 4.6 5.6 8.4 7.6 4.1 2.3 10.3 0.4 13.6 -4.1 1.4 -1.9 3.1 -3.5 3.8 -3.5 0.6 0 1.2 -0.7 1.2 -1.5 0 -1.2 1.7 -1.5 9 -1.5 8.9 0 9 0 9.6 2.7 0.8 2.9 -1.1 11.6 -2.7 12.1 -0.5 0.2 -0.9 1 -0.9 1.8 0 0.8 -0.3 1.4 -0.8 1.4 -0.4 0 -1.2 1 -1.7 2.2 -0.6 1.2 -1.9 2.6 -3 3.2 -1.1 0.6 -2.3 1.6 -2.7 2.2 -1.8 2.8 -11.4 5.7 -19.8 6 -4.7 0.2 -9.4 0.1 -10.5 -0.2z m23.4 -6.9 c6.5 -3.6 12.4 -10.1 14.5 -16.1 l1.5 -4.4 -6.9 0 c-6.7 0 -7 0.1 -8.5 2.9 -1.8 3.6 -5.8 6.5 -11 8.1 -7.3 2.2 -14.5 -1.2 -20.5 -9.6 -1.3 -1.7 -2.3 -2 -7.7 -1.6 l-6.2 0.4 1.4 4.4 c1.6 5.3 6.4 11.5 11.2 14.5 6.4 4 10.4 4.9 18.8 4.6 6.6 -0.3 9 -0.8 13.4 -3.2z"/>
  <path d="M764.3 697.9 c-2.6 -0.6 -4.3 -1.6 -4.3 -2.5 0 -0.9 -1.1 -1.4 -3 -1.4 -1.6 0 -3 -0.4 -3 -0.9 0 -0.5 -0.9 -1.1 -2 -1.4 -1.1 -0.3 -2 -1.1 -2 -1.9 0 -0.7 -1 -1.8 -2.2 -2.3 -4.8 -2.2 -10.6 -20.5 -6.5 -20.5 1 0 1.9 1.7 2.7 4.9 2.3 9.5 11.2 18.8 20.7 21.7 17.1 5.2 34.6 -4.2 39.3 -21.1 0.8 -2.8 1.8 -4.5 2.8 -4.5 1.2 0 1.4 0.9 0.9 4.9 -0.6 5.1 -4 13.1 -5.6 13.1 -0.5 0 -1.1 0.9 -1.4 2 -0.3 1.1 -1.4 2 -2.5 2 -1.1 0 -2.2 0.8 -2.5 1.9 -1.2 4.6 -21.3 8.4 -31.4 6z"/>
  <path d="M515.4 678.5 c0.1 -4.9 0.5 -6.6 1.6 -7 2.1 -0.6 18.9 -0.5 22.3 0.1 1.5 0.3 2.7 1.2 2.7 2 0 1.1 -2.2 1.4 -11.5 1.4 l-11.5 0 0 5 c0 4.2 -0.3 5 -1.8 5 -1.6 0 -1.8 -0.9 -1.8 -6.5z"/>
  <path d="M560.7 684.3 c-0.4 -0.3 -0.7 -10.5 -0.7 -22.5 0 -21.1 0.1 -21.8 2 -21.8 1.9 0 2 0.7 2 22.5 0 18.1 -0.3 22.5 -1.3 22.5 -0.8 0 -1.7 -0.3 -2 -0.7z"/>
  <path d="M617 683 c0 -1.3 0.7 -2 2 -2 1.3 0 2 0.7 2 2 0 1.3 -0.7 2 -2 2 -1.3 0 -2 -0.7 -2 -2z"/>
  <path d="M653 678.5 c0 -4.9 0.3 -6.5 1.4 -6.5 1.5 0 2.6 3 2.6 7.2 0 3.6 -1 5.8 -2.6 5.8 -1.1 0 -1.4 -1.6 -1.4 -6.5z"/>
  <path d="M675.4 678.3 l0.1 -6.8 20 -0.3 c22 -0.2 26.5 0.1 26.5 2.3 0 1.3 -3.4 1.5 -21.5 1.5 l-21.5 0 0 5 c0 4.2 -0.3 5 -1.8 5 -1.7 0 -1.9 -0.8 -1.8 -6.7z"/>
  <path d="M846 682.8 c0 -3 1.3 -5.8 2.6 -5.8 0.9 0 1.4 1.2 1.4 3.5 0 2.8 -0.4 3.5 -2 3.5 -1.1 0 -2 -0.6 -2 -1.2z"/>
  <path d="M768.7 681.5 c-4.4 -1.5 -8.3 -4.8 -10.3 -8.7 -1.9 -3.7 -1.8 -5.8 0.4 -5.8 2 0 4.2 3.8 4.2 7 0 1.3 0.7 2 2 2 1.2 0 3.5 0.7 5.2 1.6 2.5 1.3 3.8 1.4 6.8 0.5 2.1 -0.6 4.7 -1.1 5.9 -1.1 1.5 0 2.1 -0.6 2.1 -2.2 0 -1.2 0.7 -4.1 1.6 -6.4 1.4 -3.8 1.4 -4.4 0 -7.2 -0.9 -1.7 -1.6 -3.8 -1.6 -4.7 0 -0.8 -0.6 -1.5 -1.2 -1.5 -0.7 0 -3.2 -1 -5.5 -2.2 l-4.3 -2.3 -4.2 2.3 c-2.4 1.2 -4.9 2.2 -5.5 2.2 -0.7 0 -1.3 0.9 -1.3 2 0 1.1 -0.4 2 -1 2 -0.5 0 -1 0.9 -1 2 0 1.3 -0.7 2 -2 2 -3.8 0 -1.4 -6.8 4 -11.4 11.3 -9.5 28.5 -1.2 28.2 13.6 -0.2 8 -5.2 14.7 -12.7 16.7 -4.9 1.3 -5.1 1.3 -9.8 -0.4z"/>
  <path d="M847 674.3 c0 -3.4 1.2 -6.3 2.6 -6.3 1 0 1.4 1.3 1.4 4 0 3.3 -0.3 4 -2 4 -1.2 0 -2 -0.7 -2 -1.7z"/>
  <path d="M237 673 c0 -1.7 0.7 -2 4.5 -2 3.8 0 4.5 0.3 4.5 2 0 1.7 -0.7 2 -4.5 2 -3.8 0 -4.5 -0.3 -4.5 -2z"/>
  <path d="M322 673 c0 -1.7 0.7 -2 5 -2 4.3 0 5 0.3 5 2 0 1.7 -0.7 2 -5 2 -4.3 0 -5 -0.3 -5 -2z"/>
  <path d="M338 673 c0 -1.8 0.7 -2 7 -2 6.3 0 7 0.2 7 2 0 1.8 -0.7 2 -7 2 -6.3 0 -7 -0.2 -7 -2z"/>
  <path d="M363 672.9 c0 -1.8 0.5 -2 4.2 -1.7 3.1 0.2 4.4 0.8 4.6 2.1 0.3 1.4 -0.4 1.7 -4.2 1.7 -4 0 -4.6 -0.3 -4.6 -2.1z"/>
  <path d="M653 665 c0 -4.5 0.4 -6 1.4 -6 0.8 0 1.7 1.4 2.1 3 0.9 4 -0.3 9 -2.1 9 -1 0 -1.4 -1.5 -1.4 -6z"/>
  <path d="M740 660.7 c0 -4.3 2.8 -13.7 4 -13.7 0.6 0 1 -0.7 1 -1.5 0 -1 1 -1.5 3 -1.5 l3 0 -3 4.6 c-1.6 2.6 -3.4 7.1 -4 10 -1.3 6.2 -4 7.6 -4 2.1z"/>
  <path d="M804.5 658.8 c-2.6 -11.8 -14.3 -22.3 -27.2 -24.3 -5.6 -0.9 -15.3 1.7 -20.9 5.5 l-4.4 3.1 0 -3.1 c0 -2 0.5 -3 1.5 -3 0.8 0 1.5 -0.4 1.5 -1 0 -0.5 0.9 -1 2 -1 1.1 0 2 -0.4 2 -1 0 -1.8 8.5 -3.2 17 -2.8 6.5 0.3 9.9 1 14.3 3 5.1 2.4 5.7 3 5.7 5.7 0 2.8 0.3 3.1 3.1 3.1 2.2 0 3.2 0.5 3.6 2 0.3 1.1 0.9 2 1.3 2 1.3 0 4 7.8 4 11.5 0 4.6 -2.6 4.7 -3.5 0.3z"/>
  <path d="M455.3 657 c-0.3 -1.1 -1.1 -2 -1.9 -2 -0.7 0 -2.8 -0.9 -4.6 -2 -4.1 -2.5 -5.9 -2.5 -10.8 0 -2.2 1.1 -5.3 2 -7.1 2 -2.7 0 -3 -0.2 -1.8 -1.6 1.8 -2.2 7.8 -5.1 12.1 -5.9 4.6 -0.9 9.5 0.7 14.4 4.6 3.2 2.5 4.5 2.9 10 2.9 l6.3 0 -1 -3 c-1.5 -4.2 -8.5 -11.7 -13 -14 -2.1 -1.1 -6.1 -2.5 -8.9 -3.1 -6.3 -1.3 -7 -3.9 -1 -3.9 4.3 0 15 3.6 15 5.1 0 0.5 0.6 0.9 1.3 0.9 1.6 0 5.7 4.2 5.7 5.8 0 0.7 0.5 1.2 1.1 1.2 1.6 0 3.9 6.5 3.9 11 l0 4 -9.6 0 c-8.7 0 -9.6 -0.2 -10.1 -2z"/>
  <path d="M388.4 653.8 c4.3 -27.7 27 -47.1 55.1 -47.1 14.5 0 26.4 4.1 35.3 11.9 l3.7 3.3 -3.8 0.1 c-2.4 0 -4 -0.5 -4.3 -1.5 -0.4 -0.8 -1.2 -1.5 -1.9 -1.5 -0.7 0 -1.5 -0.4 -1.7 -0.8 -0.7 -1.6 -12.6 -6.1 -19.2 -7.3 -7.9 -1.3 -15.3 -0.7 -23.7 2.1 -3.2 1.1 -6.8 2 -7.9 2 -1.1 0 -2 0.6 -2 1.3 0 0.8 -1.2 2 -2.7 2.8 -1.6 0.8 -3.4 2.2 -4.1 3.2 -0.7 0.9 -2.4 1.7 -3.8 1.7 -1.9 0 -2.4 0.5 -2.4 2.6 0 1.7 -0.6 2.8 -2 3.1 -1.1 0.3 -2 1.3 -2 2.3 0 1 -0.3 2 -0.7 2.2 -1.9 0.8 -8.3 17.5 -8.3 21.5 0 1.7 -0.6 2.3 -2.1 2.3 -2 0 -2.1 -0.4 -1.5 -4.2z"/>
  <path d="M412 653.6 c0 -5.1 1.9 -9.6 4.1 -9.6 1.4 0 1.9 -0.7 1.9 -2.5 0 -1.8 0.5 -2.5 2 -2.5 1.1 0 2 -0.7 2 -1.5 0 -0.8 0.7 -1.5 1.5 -1.5 0.8 0 1.5 -0.4 1.5 -0.9 0 -1.4 8.8 -4.1 13.2 -4.1 5.8 0 5 2.6 -1.2 3.9 -11.1 2.4 -19.2 9.3 -21.4 18.3 -0.5 2.2 -0.2 2.7 1.6 3.1 1.4 0.3 0.9 0.5 -1.4 0.6 -3.7 0.1 -3.8 0 -3.8 -3.3z"/>
  <path d="M847.6 654.3 c-1.9 -10.1 -1.9 -11.3 0.3 -11.3 1.3 0 2.1 0.6 2.1 1.8 0 0.9 0.3 4.1 0.6 7 0.6 4.3 0.4 5.2 -0.9 5.2 -0.9 0 -1.8 -1.2 -2.1 -2.7z"/>
  <path d="M515.8 653.4 c-0.3 -0.3 -0.4 -1.4 -0.1 -2.5 0.8 -2.8 3.3 -2.4 3.3 0.6 0 2.3 -1.8 3.4 -3.2 1.9z"/>
  <path d="M539 652 c0 -1.3 0.7 -2 2 -2 1.3 0 2 0.7 2 2 0 1.3 -0.7 2 -2 2 -1.3 0 -2 -0.7 -2 -2z"/>
  <path d="M675.2 647 c0 -6.2 0.2 -7 1.9 -7 1.7 0 1.9 0.8 1.9 7 0 6.2 -0.2 7 -1.9 7 -1.6 0 -1.8 -0.9 -1.9 -7z"/>
  <path d="M515.6 643.8 c-0.9 -3.5 -0.8 -3.8 1.4 -3.8 1.6 0 2 0.7 2 3 0 3.6 -2.5 4.1 -3.4 0.8z"/>
  <path d="M598 642 c0 -1.3 0.7 -2 2 -2 1.3 0 2 0.7 2 2 0 1.3 -0.7 2 -2 2 -1.3 0 -2 -0.7 -2 -2z"/>
  <path d="M169 641.6 c0 -2.3 4.1 -2.7 25.8 -2.5 22.3 0.1 25.2 0.4 25.2 2.5 0 1.2 -4.4 1.4 -25.5 1.4 -21.1 0 -25.5 -0.2 -25.5 -1.4z"/>
  <path d="M224 641.6 c0 -0.7 1 -1.6 2.3 -2 2.9 -0.8 137.5 -0.8 140.5 0 1.2 0.4 2.2 1.3 2.2 2 0 1.2 -11.4 1.4 -72.5 1.4 -61.1 0 -72.5 -0.2 -72.5 -1.4z"/>
  <path d="M721 641.5 c0 -0.8 0.7 -1.5 1.5 -1.5 0.8 0 2.6 -2.2 3.9 -4.8 7.6 -15 22 -25.1 39.4 -27.8 3.7 -0.6 4.2 -0.4 4.2 1.3 0 1.5 -1.1 2.1 -5.5 3 -5.7 1.2 -17.7 6.2 -18.3 7.5 -0.2 0.4 -1.2 0.8 -2.3 0.8 -1 0 -1.9 0.6 -1.9 1.3 0 1.6 -5.2 6.7 -6.8 6.7 -0.7 0 -1.2 0.9 -1.2 2 0 1.1 -0.4 2 -1 2 -0.5 0 -1 0.6 -1 1.4 0 0.8 -0.6 2.1 -1.3 2.8 -0.8 0.7 -1.7 2.6 -2.1 4.1 -0.5 2.3 -1.2 2.7 -4.1 2.7 -2.4 0 -3.5 -0.5 -3.5 -1.5z"/>
  <path d="M843.3 636 l-2.2 -6 2.5 0 c1.9 0 2.4 0.5 2.4 2.5 0 1.4 0.5 2.5 1 2.5 0.6 0 1 1.6 1 3.5 0 5.4 -2.2 4.2 -4.7 -2.5z"/>
  <path d="M835.3 621 l-5.2 -8 3 0 c2.2 0 2.9 0.5 2.9 2 0 1.1 0.7 2 1.5 2 0.8 0 1.5 0.5 1.5 1.1 0 0.6 0.7 1.7 1.5 2.5 1.5 1.6 2.1 8.4 0.8 8.4 -0.5 -0.1 -3.1 -3.7 -6 -8z"/>
  <path d="M128 619 c0 -2 0.7 -2 124.3 -2 l124.4 0 1.1 -2.5 c0.7 -1.4 1.2 -3.5 1.2 -4.5 0 -1.3 0.7 -2 2 -2 2.5 0 2.7 3.3 0.4 9 l-1.6 4 -125.9 0 c-125.2 0 -125.9 0 -125.9 -2z"/>
  <path d="M500.1 618.8 c-0.5 -1.3 -0.8 -2.4 -0.6 -2.6 0.1 -0.1 2.9 0.1 6.3 0.4 5.1 0.6 6.2 1 6.2 2.5 0 1.6 -0.8 1.9 -5.5 1.9 -4.9 0 -5.7 -0.3 -6.4 -2.2z"/>
  <path d="M681 619 c0 -1.9 0.7 -2 13 -2 12.3 0 13 0.1 13 2 0 1.9 -0.7 2 -13 2 -12.3 0 -13 -0.1 -13 -2z"/>
  <path d="M490.5 605.9 c-5.8 -5.9 -14.5 -11 -23 -13.5 -3.3 -1 -6.4 -2.1 -6.9 -2.6 -0.5 -0.4 -1.1 -14 -1.3 -30.3 -0.3 -24.7 -0.2 -29.5 1 -29.5 3.4 0 25.2 24.9 42.7 48.8 4.5 6.2 8.6 11.2 9 11 0.4 -0.2 5.1 -6.1 10.5 -13.3 21.5 -28.4 37.5 -46.5 41.3 -46.5 l2.2 0 0 35 c0 30.4 0.2 35 1.5 35 0.8 0 1.5 0.7 1.5 1.5 0 1.3 -4.8 1.5 -36.8 1.5 l-36.8 0 0.4 4 c0.2 2.2 0.2 4 0 4 -0.2 0 -2.6 -2.3 -5.3 -5.1z"/>
  <path d="M816.8 602.7 c-2.6 -1.8 -4.8 -3.5 -4.8 -3.9 0 -0.5 1.6 -0.8 3.5 -0.8 1.9 0 3.5 0.5 3.5 1 0 0.6 0.7 1 1.5 1 1 0 1.5 1 1.5 3 0 1.7 -0.1 3 -0.2 2.9 -0.2 0 -2.4 -1.5 -5 -3.2z"/>
  <path d="M805.3 596.5 c-4.3 -1.8 -4.2 -3.5 0.2 -3.5 3.1 0 3.5 0.3 3.5 2.5 0 1.4 -0.1 2.5 -0.2 2.5 -0.2 -0.1 -1.8 -0.7 -3.5 -1.5z"/>
  <path d="M735 595.1 c0 -2.4 3.3 -4.1 8.1 -4.1 4.3 0 3.6 2.5 -1.2 3.9 -2.3 0.7 -4.7 1.5 -5.5 1.8 -0.9 0.3 -1.4 -0.2 -1.4 -1.6z"/>
  <path d="M788.5 591.8 c-2.7 -0.5 -6.5 -1.1 -8.2 -1.4 -2 -0.3 -3.3 -1.1 -3.3 -1.9 0 -1.8 2.4 -1.9 12.5 -0.4 6.3 1 7.5 1.4 7.5 3 0 2.1 -0.8 2.2 -8.5 0.7z"/>
  <path d="M753 590 c0 -1.7 0.7 -2 4 -2 4.5 0 5.7 2.3 1.8 3.4 -4.2 1.1 -5.8 0.7 -5.8 -1.4z"/>
  <path d="M762 589 c0 -1.7 0.7 -2 4 -2 4.5 0 5.7 2.3 1.8 3.4 -4.2 1.1 -5.8 0.7 -5.8 -1.4z"/>
  <path d="M304 569.4 c0 -9.5 0.2 -10.5 1.8 -10.2 1.4 0.3 1.7 1.6 2 8.3 0.3 9.3 -0.3 12.5 -2.3 12.5 -1.2 0 -1.5 -1.9 -1.5 -10.6z"/>
  <path d="M342 575 c0 -2 0.6 -2 41.6 -2 39 0 41.5 0.1 41.2 1.8 -0.3 1.6 -3.2 1.7 -41.6 2 -40.7 0.2 -41.2 0.2 -41.2 -1.8z"/>
  <path d="M600.7 576.3 c-0.4 -0.3 -0.7 -1.2 -0.7 -2 0 -1.1 6.3 -1.3 33.5 -1.3 27.9 0 33.5 0.2 33.5 1.4 0 0.7 -1 1.6 -2.2 2 -3.1 0.8 -63.3 0.8 -64.1 -0.1z"/>
  <path d="M669.8 576.3 c-1 -0.2 -1.8 -1.1 -1.8 -1.9 0 -1.1 1.6 -1.4 7.1 -1.4 6 0 7 0.2 6.7 1.6 -0.2 1.2 -1.6 1.7 -5.3 1.9 -2.7 0.2 -5.8 0.1 -6.7 -0.2z"/>
  <path d="M511 555.2 c-3.3 -0.3 -3.9 -0.9 -6.9 -6.5 -1.9 -3.4 -7.1 -12.5 -11.6 -20.2 -4.5 -7.7 -16.2 -27.9 -26 -45 -26.2 -45.7 -34 -58.6 -37.7 -62.5 l-3.3 -3.4 -0.3 49.2 c-0.2 48.4 -0.3 49.2 -2.2 49.2 -2 0 -2 -0.7 -2 -49.4 0 -27.2 0.3 -50.1 0.6 -51 1 -2.6 6.2 -2 9.5 1.1 1.6 1.6 2.9 3.6 2.9 4.5 0 1 0.7 1.8 1.5 1.8 0.8 0 1.5 0.5 1.5 1.1 0 0.6 0.7 1.7 1.5 2.5 0.8 0.9 1.5 2.6 1.5 4 0 1.4 0.6 2.4 1.5 2.4 0.8 0 1.7 1.1 2.1 2.5 0.3 1.4 1 2.5 1.4 2.5 0.5 0 1.2 1 1.6 2.2 0.3 1.2 1.3 2.8 2 3.6 0.8 0.7 1.4 2.4 1.4 3.8 0 1.4 0.6 2.4 1.5 2.4 0.8 0 1.7 1.1 2.1 2.5 0.3 1.4 1 2.5 1.4 2.5 0.5 0 1.4 1.6 2.1 3.5 0.7 1.9 1.6 3.5 2 3.5 0.4 0 1.3 1.6 2 3.5 0.7 1.9 1.6 3.5 1.9 3.5 1 0 3 4.8 3 7 0 1.1 0.6 2 1.4 2 0.8 0 1.8 1 2.2 2.2 0.3 1.2 1.3 2.8 2 3.6 0.8 0.7 1.4 2.4 1.4 3.8 0 1.4 0.6 2.4 1.4 2.4 1.5 0 2.6 2.1 2.6 5.1 0 1 0.6 1.9 1.4 1.9 1.5 0 2.6 2.1 2.6 5.1 0 1 0.6 1.9 1.4 1.9 1.5 0 2.6 2.1 2.6 5.1 0 1 0.7 1.9 1.5 1.9 0.8 0 1.7 1.1 2.1 2.5 0.3 1.4 1 2.5 1.4 2.5 0.5 0 1.2 1 1.6 2.2 0.3 1.2 1.3 2.8 2 3.6 0.8 0.7 1.4 2 1.4 2.8 0 0.8 0.4 1.4 0.9 1.4 0.5 0 1.5 1.5 2.2 3.3 0.7 1.7 1.9 3.8 2.6 4.5 0.7 0.7 1.3 2 1.3 2.8 0 0.8 0.4 1.4 0.8 1.4 1.1 0 5.2 8.6 5.2 10.9 0 1.1 0.9 2.1 2.3 2.5 3.3 0.9 3.4 0.8 4.7 -2.4 0.7 -1.6 1.6 -3 2.1 -3 0.5 0 0.9 -0.6 0.9 -1.4 0 -0.8 0.6 -2.1 1.3 -2.8 0.7 -0.7 1.9 -2.8 2.6 -4.5 0.7 -1.8 1.6 -3.3 2 -3.3 0.4 0 1.3 -1.6 2 -3.5 0.7 -1.9 1.6 -3.5 2.1 -3.5 0.4 0 1.1 -1.1 1.4 -2.5 0.4 -1.4 1.3 -2.5 2.1 -2.5 0.8 0 1.5 -0.9 1.5 -1.9 0 -3 1.1 -5.1 2.6 -5.1 0.8 0 1.4 -1 1.4 -2.4 0 -1.4 0.6 -3.1 1.3 -3.8 0.7 -0.7 1.9 -2.8 2.6 -4.5 0.7 -1.8 1.7 -3.3 2.2 -3.3 0.5 0 0.9 -0.6 0.9 -1.4 0 -0.8 0.6 -2.1 1.3 -2.8 0.7 -0.7 1.9 -2.8 2.6 -4.5 0.7 -1.8 2 -3.3 2.7 -3.3 0.8 0 1.4 -0.9 1.4 -2 0 -2.3 2 -7 3.1 -7 0.4 0 1 -1.1 1.3 -2.5 0.4 -1.4 1.3 -2.5 2.1 -2.5 0.9 0 1.5 -1 1.5 -2.4 0 -1.4 0.6 -3.1 1.3 -3.8 0.7 -0.7 1.9 -2.8 2.6 -4.5 0.7 -1.8 2 -3.3 2.7 -3.3 0.8 0 1.4 -1 1.4 -2.4 0 -1.4 0.6 -3.1 1.3 -3.8 0.7 -0.7 1.9 -2.8 2.6 -4.5 0.7 -1.8 1.7 -3.3 2.2 -3.3 0.5 0 0.9 -0.6 0.9 -1.4 0 -0.8 0.6 -2.1 1.3 -2.8 0.7 -0.7 1.9 -2.8 2.6 -4.6 0.8 -1.9 1.9 -3.9 2.5 -4.6 0.6 -0.6 2 -2.9 3.1 -5 1.1 -2.2 2.7 -4.1 3.7 -4.4 0.9 -0.2 1.8 -1.4 2 -2.6 0.2 -1.5 1.1 -2.2 3.1 -2.4 2.1 -0.3 2.7 -0.9 2.7 -2.8 0 -2.1 0.5 -2.4 3.5 -2.4 3.3 0 3.5 0.2 3.5 3.5 0 2.4 -0.5 3.5 -1.5 3.5 -0.8 0 -1.5 -0.7 -1.5 -1.6 0 -0.9 -0.6 -1.4 -1.2 -1.2 -1.8 0.6 -10.8 12.8 -14.9 20 -2 3.5 -12.1 21.2 -22.5 39.3 -10.5 18.2 -24.8 43 -31.8 55.2 -7 12.2 -13.3 22.3 -13.9 22.5 -0.7 0.2 -2.8 0.2 -4.7 0z"/>
  <path d="M777.8 550.7 c-0.7 -0.7 -2.1 -1.6 -3 -2 -1 -0.3 -1.8 -1.3 -1.8 -2.1 0 -0.8 -0.5 -1.6 -1.1 -1.8 -0.6 -0.2 -1.4 -2.7 -1.7 -5.6 -0.4 -4.2 -0.2 -5.2 1.1 -5.2 0.9 0 1.9 1.6 2.5 4.3 1.1 4.3 3.7 7.4 8 9.6 2.1 1.1 2.2 1 2.2 -2.4 0 -2.8 0.4 -3.5 2 -3.5 1.7 0 2 0.7 2 5 l0 5 -4.4 0 c-2.5 0 -5.1 -0.6 -5.8 -1.3z"/>
  <path d="M299 493.1 c0 -1.6 0.6 -2.1 2.5 -2.1 2.5 0 2.5 -0.1 2.5 -9 0 -8.4 0.1 -9 2 -9 2 0 2.1 0.5 1.8 10.8 l-0.3 10.7 -4.2 0.3 c-3.8 0.3 -4.3 0.1 -4.3 -1.7z"/>
  <path d="M784 473 c0 -2.3 0.4 -3 2 -3 1.6 0 2 0.7 2 3 0 2.3 -0.4 3 -2 3 -1.6 0 -2 -0.7 -2 -3z"/>
  <path d="M304 438.4 c0 -8.6 0.2 -9.5 1.8 -9.2 1.4 0.3 1.7 1.7 2 9.6 0.3 8.7 0.2 9.2 -1.8 9.2 -1.9 0 -2 -0.6 -2 -9.6z"/>
  <path d="M341.5 410.3 c-2.1 -12.3 -4.8 -19.5 -10.7 -28 l-2.9 -4.3 3.1 0 c2 0 3 0.5 3 1.5 0 0.8 0.5 1.5 1 1.5 0.6 0 1 1.1 1 2.5 0 1.5 0.6 2.5 1.4 2.5 1.5 0 2.6 2.1 2.6 5.1 0 1 0.4 1.9 0.9 1.9 1.2 0 4.1 12.6 4.1 17.4 0 5 -2.7 4.9 -3.5 -0.1z"/>
  <path d="M678.2 409.3 l0.3 -4.8 47.3 -0.3 c46.7 -0.2 47.2 -0.2 47.2 1.8 0 2 -0.6 2 -45.5 2 l-45.5 0 0 3 c0 2.4 -0.4 3 -2.1 3 -1.8 0 -2 -0.5 -1.7 -4.7z"/>
  <path d="M303.2 400.8 c-1.5 -5.7 -7.1 -11.5 -11.7 -12.4 -2.5 -0.4 -3.5 -1.1 -3.5 -2.5 0 -2.5 3.2 -2.5 8.5 0 3.6 1.6 9.5 7.1 9.5 8.9 0 0.4 0.7 2.8 1.5 5.5 1.4 4.6 1.4 4.7 -0.8 4.7 -1.8 0 -2.5 -0.9 -3.5 -4.2z"/>
  <path d="M506.7 381.3 c-0.6 -1.6 -1.7 -3.4 -2.4 -4.1 -0.7 -0.7 -1.3 -2 -1.3 -2.8 0 -0.8 -0.4 -1.4 -0.9 -1.4 -0.5 0 -1.3 -1 -1.7 -2.2 -0.3 -1.2 -1.3 -2.8 -2 -3.6 -0.8 -0.7 -1.4 -1.9 -1.4 -2.7 0 -0.7 -0.7 -1.5 -1.5 -1.9 -0.8 -0.3 -1.5 -1.2 -1.5 -2.1 0 -0.8 -0.4 -1.5 -1 -1.5 -0.5 0 -1 -1.7 -1 -3.7 l0.1 -3.8 3 3.5 c1.7 1.9 6 8.3 9.5 14.3 3.6 5.9 6.7 10.7 6.9 10.7 0.2 0 3.2 -4.8 6.7 -10.6 3.5 -5.9 7.7 -12.3 9.5 -14.3 l3.2 -3.6 0.1 3.8 c0 2.4 -0.5 4 -1.5 4.3 -0.8 0.4 -1.5 1.2 -1.5 2 0 0.8 -0.4 1.4 -1 1.4 -0.5 0 -1 0.7 -1 1.5 0 0.8 -0.4 1.5 -0.9 1.5 -0.5 0 -1.2 1.1 -1.5 2.5 -0.4 1.4 -1.3 2.5 -2.1 2.5 -0.9 0 -1.5 1 -1.5 2.5 0 1.6 -0.6 2.5 -1.5 2.5 -0.8 0 -1.5 0.9 -1.5 2.1 0 3.9 -1.9 5.9 -5.6 5.9 -2.8 0 -3.7 -0.5 -4.7 -2.7z"/>
  <path d="M480.8 347.9 c-3.3 -2.5 -12.8 -5.9 -16.3 -5.9 -1.9 0 -2.5 -0.5 -2.5 -2.1 0 -2 0.4 -2.1 5 -1.5 7.2 1 15.4 4.4 19.7 8.2 l3.8 3.3 -3.5 0 c-2 0 -4.7 -0.9 -6.2 -2z"/>
  <path d="M534.9 347.6 c2.9 -3.1 11.3 -7.1 17.9 -8.5 7.6 -1.6 9.2 -1.4 9.2 0.9 0 1.4 -0.7 2 -2.4 2 -3.9 0 -15.7 4 -17.9 6.1 -1.2 1.1 -3.5 1.9 -5.6 1.9 l-3.4 0 2.2 -2.4z"/>
 </g>
 <g fill="#7ca309">
  <path d="M846.7 679.8 c1.2 -9.6 0.9 -29.6 -0.6 -35.8 -0.7 -3 -3.3 -9.8 -5.8 -15 -12.3 -25.6 -41.1 -40.9 -73.1 -38.6 -9.1 0.6 -24 3.4 -29.6 5.5 l-2.6 1.1 0 -80.7 c0 -73.6 -0.1 -80.8 -1.7 -82.5 -1.5 -1.7 -1.4 -1.8 1.8 -1.8 2.9 0.1 4.7 1.3 11.7 7.9 l8.2 7.8 0.2 11.9 c0.1 6.5 0.3 33.6 0.3 60.1 0 26.4 0.2 48.3 0.5 48.6 0.3 0.3 6.6 1 14 1.6 52.5 4.5 70.4 10.1 89.2 28 10.3 9.7 14.7 16.1 25.7 36.9 8.6 16.5 19.5 33.8 24.3 38.8 2.5 2.7 2.9 3.8 2.6 7.5 l-0.3 4.4 -32.8 0.3 -32.8 0.2 0.8 -6.2z"/>
  <path d="M148.1 679.5 c-1.7 -3 -3.2 -5.9 -3.3 -6.5 -0.3 -1.1 211.6 -2.6 221.5 -1.5 l5.7 0.7 0 6.4 0 6.4 -110.4 0 -110.4 0 -3.1 -5.5z"/>
  <path d="M515.5 678.5 l0 -6.5 13.8 0 13.7 0 0 6.5 0 6.5 -13.7 0 -13.8 0 0 -6.5z"/>
  <path d="M676 680.1 c0 -2.7 -0.3 -5.6 -0.6 -6.5 -0.5 -1.3 0.6 -1.4 8.3 -1.1 4.8 0.3 11.9 0.8 15.8 1.2 6.7 0.8 7 0.9 7.6 3.8 1.7 8 2.8 7.5 -15.1 7.5 l-16 0 0 -4.9z"/>
  <path d="M516 647 l0 -7 13.5 0 13.6 0 -0.3 6.8 -0.3 6.7 -13.2 0.3 -13.3 0.3 0 -7.1z"/>
  <path d="M675.5 647 l0 -7 8.2 0 c4.6 0 8.3 0.4 8.5 1 0.2 0.6 2 1.3 4.1 1.7 3 0.4 3.7 0.3 3.7 -1.1 0 -1.2 1 -1.6 4.1 -1.6 l4 0 -0.6 4.8 c-1.3 10.2 0.5 9.2 -16.8 9.2 l-15.2 0 0 -7z"/>
  <path d="M132.9 650.8 c-0.6 -1.3 -2.3 -4.2 -3.6 -6.6 l-2.5 -4.2 89.8 0.3 c49.5 0.2 100.8 0.8 114.2 1.2 17.6 0.5 24.2 0.4 24.2 -0.4 0 -0.7 2.9 -1.1 8.5 -1.1 l8.5 0 0 6.5 0 6.5 -119 0 -118.9 0 -1.2 -2.2z"/>
  <path d="M117.5 618.5 c-0.7 -1.1 -3.3 -5.6 -5.8 -10 l-4.6 -8 125.7 -0.3 c83.5 -0.1 125.8 0.1 126 0.8 0.5 1.3 9.2 1.3 9.2 0 0 -0.6 2.8 -1 6.5 -1 5.8 0 6.5 0.2 6.5 2 0 1.1 -0.4 2 -0.9 2 -0.6 0 -0.6 1.2 0 3.2 1.1 4 1.2 9.8 0.1 11.5 -0.7 1 -28.2 1.4 -131.1 1.5 -129.4 0.3 -130.4 0.3 -131.6 -1.7z"/>
  <path d="M497.1 613.7 c-2.8 -4 -6.4 -8.3 -8.1 -9.5 -1.6 -1.3 -3 -2.6 -3 -3.1 0 -0.5 13.7 -1 30.5 -1 20.7 -0.1 30.5 0.1 30.5 0.9 0 0.5 0.9 1 2 1 1.1 0 2 -0.4 2 -1 0 -1.5 11.7 -1.3 12.2 0.3 0.4 0.9 15.5 1.3 70.2 1.5 l69.7 0.4 1.9 3.9 c1.1 2.1 2 5.8 2 8.2 l0 4.5 -5.7 0.5 c-3.2 0.2 -49.3 0.5 -102.5 0.6 l-96.7 0.1 -5 -7.3z"/>
  <path d="M262 569.5 l0 -10.5 22.5 0 c21.8 0 22.5 0.1 22.5 2 0 1.3 -0.7 2 -1.9 2 -1.4 0 -1.7 0.6 -1.3 2.6 0.2 1.4 1.1 2.8 1.8 3.1 1 0.3 1.4 2.3 1.4 5.9 l0 5.4 -22.5 0 -22.5 0 0 -10.5z"/>
  <path d="M878 552.3 c-0.1 -7.2 -1.3 -10.5 -6.2 -16.2 -1.5 -1.7 -3.1 -3.1 -3.7 -3.1 -0.6 0 -1.1 -1.6 -1.1 -3.5 0 -3.3 0.2 -3.5 3.5 -3.5 1.9 0 3.5 0.3 3.5 0.8 0 0.4 1 1.2 2.2 1.7 1.2 0.6 3.6 2.9 5.3 5.3 2.8 4.1 3 5.1 3.3 14.8 l0.4 10.4 -3.6 0 -3.6 0 0 -6.7z"/>
  <path d="M185 528.5 l0 -9.5 58.4 0 58.3 0 2.5 3.8 c1.7 2.5 2.7 5.6 3 9.5 l0.5 5.7 -61.4 0 -61.3 0 0 -9.5z"/>
  <path d="M185 485 l0 -10 10.1 0 c5.6 0 11.9 -0.5 14.1 -1.2 3.2 -0.9 4.1 -0.9 4.8 0.2 0.7 1.1 9.4 1.4 44.4 1.8 l43.5 0.5 2.4 3.6 c1.3 2 2.7 5.9 3.1 8.7 l0.6 5.1 -4.6 0.7 c-2.6 0.3 -30.3 0.6 -61.5 0.6 l-56.9 0 0 -10z"/>
  <path d="M845.8 452.3 c-3.6 -0.9 -2 -3.3 2.2 -3.3 3.3 0 4 0.3 4 2 0 2 -2 2.4 -6.2 1.3z"/>
  <path d="M132.7 450.3 c-0.9 -1.5 -5.7 -18.1 -5.7 -19.6 0 -1.3 2.4 -1.5 15.5 -1.6 13.3 -0.2 15.5 0 15.5 1.4 0 1.3 7.9 1.5 72.3 1.5 l72.2 0 2.1 3.3 c1.3 1.9 2.5 5.9 2.9 9.5 l0.7 6.2 -87.5 0 c-48.2 0 -87.8 -0.3 -88 -0.7z"/>
  <path d="M124.7 406.3 c-0.7 -1.2 -5.7 -19.6 -5.7 -21 0 -0.7 0.9 -1.3 2 -1.3 1.1 0 2 0.7 2 1.5 0 1.3 10 1.5 83.8 1.5 57 0 85 0.4 87.7 1.1 5.4 1.5 11 7.1 12.9 13 0.9 2.6 1.6 5 1.6 5.3 0 0.9 -183.8 0.7 -184.3 -0.1z"/>
 </g>
 <g fill="#ccc530">
  <path d="M911 683.6 c0 -0.7 -1.7 -3.3 -3.9 -5.7 -6.1 -7 -16.5 -23.4 -25.2 -40.1 -11 -20.8 -15.4 -27.2 -25.7 -36.9 -18.8 -17.9 -36.7 -23.5 -89.2 -28 -7.4 -0.6 -13.7 -1.3 -14 -1.6 -0.3 -0.3 -0.5 -22.1 -0.6 -48.6 0 -26.5 -0.1 -53.5 -0.2 -60 l-0.2 -11.9 -3.3 -3.1 c-1.8 -1.8 -5.8 -5.6 -9 -8.6 -3.2 -2.9 -5.7 -5.4 -5.5 -5.6 0.2 -0.1 22.6 0.1 49.8 0.4 55.7 0.7 51.9 0.2 61.2 8.8 3.4 3.2 4.8 5.4 4.8 7.2 l0 2.6 -38.5 -0.3 c-38.1 -0.2 -38.5 -0.2 -38.5 1.8 0 1.1 -0.4 2 -1 2 -1.4 0 -1.3 78.2 0 83.2 1.1 3.8 7.1 10 11.8 12.1 1.6 0.7 11.6 1.4 24.2 1.9 11.8 0.4 32.2 1.2 45.3 1.8 13.1 0.7 24.1 0.9 24.4 0.6 0.3 -0.3 0.7 -2.4 1 -4.8 0.3 -3.3 -0.1 -5.4 -1.9 -8.8 -2.8 -5.2 -9.9 -11 -13.4 -11 -2.2 0 -2.4 -0.4 -2.4 -5 0 -3.8 0.4 -5.2 1.9 -6 2.9 -1.5 38.8 -1.3 39.7 0.2 0.5 0.7 0.9 33.4 1.1 72.7 0.1 39.3 0.5 72.7 0.8 74.2 0.4 1.5 1.3 3 2.1 3.3 0.8 0.3 1.4 1.9 1.4 3.6 0 2.3 0.4 3 2 3 1.7 0 2 0.7 2 4 0 2.2 -0.2 4 -0.5 4 -0.3 0 -0.5 -0.6 -0.5 -1.4z"/>
  <path d="M703.7 678.6 c-0.8 -2 -16.5 -3.4 -23.9 -2 -3.6 0.6 -3.8 0.5 -3.8 -2 l0 -2.6 15 0 15 0 0 4 c0 3.9 -1.3 5.4 -2.3 2.6z"/>
  <path d="M541.3 675.5 c0 -2.2 0.2 -3 0.4 -1.7 0.2 1.2 0.2 3 0 4 -0.3 0.9 -0.5 -0.1 -0.4 -2.3z"/>
  <path d="M335.7 675.3 c-0.8 -0.7 -10.1 -1 -61.2 -2.1 l-36 -0.7 58 -0.2 c57.4 -0.1 58 -0.1 53 1.7 -5 1.8 -12.6 2.6 -13.8 1.3z"/>
  <path d="M541 647 c0 -2.2 -1 -2.6 -2.7 -0.9 -0.8 0.8 -1.3 0.8 -1.7 0 -0.5 -0.7 -4.6 -1.1 -10.7 -1.1 -9.2 0 -9.9 -0.1 -9.9 -2 0 -1.5 0.7 -2 2.4 -2 1.4 0 2.8 0.5 3.1 1 0.3 0.6 1.7 1 3.1 1 1.4 0 2.2 -0.4 1.9 -1 -0.4 -0.6 2.3 -1 7.4 -1 l8.1 0 0 4 c0 2.2 -0.2 4 -0.5 4 -0.3 0 -0.5 -0.9 -0.5 -2z"/>
  <path d="M704 647.6 c0 -1.1 -2.8 -1.6 -12.5 -2.1 -6.8 -0.4 -13.1 -0.5 -14 -0.1 -1.1 0.4 -1.5 -0.2 -1.5 -2.2 l0 -2.7 16 -0.2 16 -0.2 0 2.8 c0 1.6 -0.3 3.6 -0.6 4.5 -0.8 2 -3.4 2.1 -3.4 0.2z"/>
  <path d="M370.3 643.5 c0 -2.2 0.2 -3 0.4 -1.7 0.2 1.2 0.2 3 0 4 -0.3 0.9 -0.5 -0.1 -0.4 -2.3z"/>
  <path d="M303.8 644.3 c-1 -0.3 -1.8 -0.9 -1.8 -1.5 0 -0.6 -16.9 -0.9 -49.9 -0.6 -27.5 0.1 -50.3 0 -50.6 -0.4 -0.4 -0.4 0.8 -0.9 2.6 -1.3 4.7 -0.8 160.6 -0.2 161.4 0.7 0.4 0.4 0 1.4 -0.8 2.3 -1.4 1.3 -5.4 1.5 -30.4 1.4 -15.8 -0.1 -29.6 -0.4 -30.5 -0.6z"/>
  <path d="M671.8 619.3 c5 -0.2 13.4 -0.2 18.5 0 5 0.1 0.9 0.3 -9.3 0.3 -10.2 0 -14.3 -0.2 -9.2 -0.3z"/>
  <path d="M702.6 611 c-2.3 -4.2 -3.2 -5 -5.7 -5 -2.2 0 -2.9 -0.5 -2.9 -2 0 -1.7 0.7 -2 4 -2 2.9 0 4 0.4 4 1.5 0 0.8 0.6 1.5 1.3 1.5 2.6 0 5.1 9 2.8 10.4 -0.4 0.3 -2 -1.7 -3.5 -4.4z"/>
  <path d="M376.9 610.3 l-1.4 -4.8 -132.5 -0.6 c-72.9 -0.3 -132.7 -0.6 -133 -0.7 -1.6 -0.7 2.9 -2 5.4 -1.5 2.1 0.4 2.7 0.3 2.2 -0.5 -0.6 -1.1 97 -1.7 250 -1.7 l11.2 0 1.1 4.8 c0.6 2.7 1.1 5.9 1.1 7.3 0 4.1 -2.6 2.6 -4.1 -2.3z"/>
  <path d="M574.8 605.3 c-1 -0.2 -1.8 -1.1 -1.8 -1.9 0 -1.2 5.4 -1.4 35 -1.4 34.3 0 35 0 35 2 0 2 -0.6 2 -33.2 1.9 -18.3 -0.1 -34.1 -0.3 -35 -0.6z"/>
  <path d="M488.5 603 c-1.8 -2 -1.7 -2 26.1 -2.2 15.3 0 33.6 -0.2 40.7 -0.3 l12.7 -0.3 0 2.4 0 2.4 -38.8 0 c-37.6 0 -38.9 -0.1 -40.7 -2z"/>
  <path d="M305.6 573.8 c-0.7 -2.2 -0.8 -2.2 -1.5 -0.4 -0.9 2.3 -1.5 1.5 -3 -4 l-1.1 -4.2 -18.5 -0.7 c-17.2 -0.7 -18.5 -0.9 -18.5 -2.6 0 -1.8 1.1 -1.9 22 -1.9 l22 0 0 8 c0 8.3 -0.3 9.5 -1.4 5.8z"/>
  <path d="M302.5 527.5 c-3.6 -5 -4.3 -5.5 -7.7 -5.5 -3.1 0 -3.8 -0.4 -3.8 -2 0 -1.7 0.7 -2 5 -2 3.8 0 5 0.4 5 1.5 0 0.8 0.7 1.5 1.5 1.5 0.8 0 1.8 0.8 2.3 1.8 1 1.8 2.6 10.2 2 10.2 -0.1 0 -2.1 -2.5 -4.3 -5.5z"/>
  <path d="M185 519.5 c0 -2.5 0.1 -2.5 7.8 -2.5 4.3 0 18.1 0.3 30.5 0.7 21.1 0.6 22.7 0.7 22.7 2.5 0 1.7 -1.5 1.8 -30.5 1.8 l-30.5 0 0 -2.5z"/>
  <path d="M302.6 485 l-3.8 -6 -34.2 0 c-18.7 0 -35.1 -0.3 -36.3 -0.6 -1.3 -0.4 -2.3 -1.3 -2.3 -2 0 -1.2 6.2 -1.4 37.3 -1.4 20.4 0 37.7 0.4 38.2 0.8 3.2 2.1 5.6 7.4 5.3 11.2 l-0.3 4 -3.9 -6z"/>
  <path d="M303 440 l-3.5 -4.9 -75.5 -0.1 c-41.5 0 -76.5 -0.3 -77.7 -0.6 -1.3 -0.4 -2.3 -1.3 -2.3 -2 0 -1.2 12.4 -1.4 78.7 -1.4 l78.6 0 2.9 3.2 c2 2.3 2.8 4.2 2.8 7 0 2.1 -0.1 3.8 -0.2 3.8 -0.2 0 -1.9 -2.2 -3.8 -5z"/>
  <path d="M128 434.2 c0 -0.6 -0.3 -1.7 -0.6 -2.6 -0.5 -1.4 0.5 -1.6 7 -1.6 6.9 0 7.6 0.2 7.6 2 0 1.8 -0.7 2 -5.4 2 -3 0 -6.1 0.3 -7 0.6 -0.9 0.3 -1.6 0.2 -1.6 -0.4z"/>
  <path d="M265.2 405.5 c0.3 -0.3 6.2 -0.6 13.2 -0.7 7 0 12.5 -0.3 12.3 -0.5 -0.3 -0.2 -3.1 -0.6 -6.3 -0.9 -9 -0.8 -7.8 -1.4 2.9 -1.4 5.9 0 9.8 0.4 10.3 1.1 0.4 0.8 -0.1 0.9 -1.7 0.4 -1.3 -0.4 -2.1 -0.4 -1.7 0 0.4 0.4 2.2 1.1 4 1.5 2 0.5 -3.9 0.8 -15.1 0.9 -10.1 0.1 -18.2 -0.1 -17.9 -0.4z"/>
  <path d="M301.1 397.6 c-4.2 -4.3 -6.5 -5.7 -10.3 -6.6 -6.4 -1.6 -6.6 -4 -0.2 -4 7.2 0 13.4 4.2 13.4 9.2 0 1.8 0.5 2.8 1.5 2.8 0.8 0 1.5 0.9 1.5 2 0 1.1 -0.1 2 -0.3 2 -0.1 0 -2.7 -2.4 -5.6 -5.4z"/>
  <path d="M119.7 388 c-0.5 -2 0 -2 33.9 -2 33.7 0 34.4 0 34.4 2 0 2 -0.7 2 -33.9 2 -33 0 -33.9 0 -34.4 -2z"/>
 </g>
 <g fill="#e9f3f6">
  <path d="M428.1 717.4 c-8.5 -2.3 -15 -6.3 -23.2 -14.4 -12.4 -12.3 -17.7 -26.5 -16.6 -43.9 1.5 -23.1 15.7 -42.1 36.7 -49.1 20.2 -6.8 43.3 -1.8 57.4 12.4 10.9 10.9 15.9 23.5 15.8 39.6 -0.2 18.1 -4.4 28.4 -16.6 40.5 -8.8 8.7 -15 12.6 -24.1 15 -7.4 1.9 -22.2 1.9 -29.4 -0.1z m28.5 -24.8 c8.4 -3.9 15.9 -12.7 16.6 -19.7 0.3 -2.3 0 -2.4 -5.8 -2.7 l-6.1 -0.3 -3.8 4.7 c-4.4 5.3 -8.6 7.4 -14.7 7.4 -5.2 0 -9.4 -2.4 -13.9 -7.9 -3.2 -4 -3.4 -4.1 -9.6 -4.1 -4.4 0 -6.3 0.4 -6.3 1.3 0 6 6.5 15.4 13.7 19.8 8.7 5.4 20.2 5.9 29.9 1.5z m-28.5 -38.2 c0.7 -0.8 3.4 -2.6 6.1 -4 6.7 -3.4 13.1 -3.3 19 0.5 2.5 1.6 4.9 3.4 5.2 4 0.4 0.6 3.6 1.1 7.3 1.1 l6.5 0 -0.7 -2.7 c-0.3 -1.6 -1.8 -4.6 -3.3 -6.7 -10.3 -15 -33.5 -16.9 -46.7 -3.8 -3.7 3.6 -6.5 8.7 -6.5 11.7 0 2.2 11.2 2.1 13.1 -0.1z"/>
  <path d="M761.5 717.6 c-2.7 -0.7 -7.7 -2.5 -11 -4.1 -7.9 -3.9 -20.3 -16.1 -23.6 -23.2 l-2.4 -5.3 -9.7 0 -9.8 0 -0.6 -2.7 c-0.3 -1.6 -1 -4.1 -1.5 -5.7 -0.5 -1.6 -0.9 -3.3 -0.9 -3.7 0 -0.5 4.7 -0.9 10.5 -0.9 l10.5 0 0 -9 0 -9 -10 0 c-11.2 0 -10.6 0.5 -8.9 -8.3 l1.2 -5.7 9.6 0 9.6 0 2.5 -5.2 c8.3 -17.5 30.1 -29.1 51.6 -27.4 9.5 0.7 20.4 4.1 27.3 8.5 10.4 6.7 19.4 19.3 22.7 31.6 1.8 6.6 1.7 21.6 -0.1 28.5 -5.3 20.1 -21.4 36.4 -41.1 41.5 -6.9 1.8 -18.9 1.8 -25.9 0.1z m24.9 -24.6 c2.8 -1.1 7.1 -3.8 9.4 -6 6.3 -6.1 8.5 -11.1 9 -20.6 0.5 -9.8 -1.3 -14.8 -8.3 -22.3 -6.4 -6.9 -12.8 -9.5 -23 -9.6 -7 0 -8.7 0.4 -13.3 3 -21.9 12.1 -23.2 41 -2.4 53.2 9.5 5.6 17.9 6.2 28.6 2.3z"/>
  <path d="M765.5 679.8 c-7.6 -4.4 -10.6 -14.5 -6.8 -22.5 2.3 -5 9.4 -9.3 15.2 -9.3 9.1 0 17.1 7.8 17.1 16.7 0 4.8 -3.6 12 -7.2 14.7 -4.3 3.1 -13.3 3.3 -18.3 0.4z"/>
  <path d="M561 663.5 c0 -11.8 0 -21.8 0 -22.2 0 -0.5 9.1 -0.8 20.3 -0.8 l20.2 0 0.3 22.3 0.2 22.2 -20.5 0 -20.5 0 0 -21.5z"/>
  <path d="M617.7 684.3 c-0.4 -0.3 -0.7 -10.5 -0.7 -22.5 l0 -21.8 19.5 0 19.5 0 0 22.5 0 22.5 -18.8 0 c-10.4 0 -19.2 -0.3 -19.5 -0.7z"/>
  <path d="M905.8 675.9 l-4.8 -6.1 -0.2 -30.6 c-0.2 -16.9 -0.3 -49.6 -0.3 -72.7 0 -23.1 -0.4 -42.6 -0.8 -43.2 -1 -1.6 -30.9 -1.8 -33.8 -0.3 -2.8 1.6 -2.5 5 0.5 5 3.5 0 11 7.1 13.5 13 1.8 4.2 2 6.1 1.5 11.5 l-0.7 6.6 -25.8 -0.5 c-15.5 -0.3 -26.6 -0.9 -27.8 -1.5 -1.2 -0.7 -9.4 -1.1 -21.2 -1.1 -11.8 0 -20.7 -0.5 -23.1 -1.2 -5.6 -1.7 -12.5 -8.1 -13.8 -12.8 -0.6 -2.4 -0.9 -19.5 -0.8 -46.6 0.3 -42.1 0.3 -42.9 2.3 -42.9 2 0 2 0.8 2.5 44 0.4 39.2 0.7 44.3 2.2 46.4 1.8 2.5 6.6 6.1 8.3 6.1 0.7 0 0.9 -12.5 0.7 -36.2 -0.2 -20 -0.1 -37.8 0.3 -39.5 l0.6 -3.3 43.2 0 43.2 0 11 15.1 c6.1 8.3 15.2 20.7 20.3 27.6 l9.2 12.5 0 78.4 c0 43.1 -0.3 78.4 -0.7 78.4 -0.5 -0.1 -2.9 -2.8 -5.5 -6.1z"/>
  <path d="M378 616.5 c0 -2.4 -0.7 -6.6 -1.6 -9.2 -1.5 -4.4 -1.5 -4.8 0.2 -6 1 -0.7 2.9 -1.3 4.2 -1.3 2.5 0 2.5 0.1 1.9 7.4 -0.5 6.3 -2.7 13.6 -4.2 13.6 -0.3 0 -0.5 -2 -0.5 -4.5z"/>
  <path d="M703 611.1 c-1.1 -2.2 -2.3 -4.2 -2.7 -4.4 -0.9 -0.6 -70.5 -1.6 -110.6 -1.7 -25.1 0 -25.8 -0.1 -25.2 -1.9 0.5 -1.6 0 -2 -2.2 -2.4 -1.5 -0.2 30.4 -0.5 71 -0.6 l73.7 -0.1 0 7.5 c0 4.2 -0.4 7.5 -1 7.5 -0.5 0 -1.9 -1.8 -3 -3.9z"/>
  <path d="M342 492.8 c0 -91.7 0.1 -89.7 -6.2 -102.7 -3.7 -7.6 -14.9 -19.6 -21.3 -22.9 -2.3 -1.1 -6.8 -2.8 -10 -3.8 -5.6 -1.7 -13.3 -1.8 -102.5 -2.1 l-96.6 -0.4 -2.5 -10.8 -2.5 -10.8 59.1 -0.6 c98.2 -1.1 302.3 -0.9 309.1 0.4 15.7 2.9 23.5 9.7 36.8 32.1 3.2 5.4 5.9 9.8 6 9.8 0.1 0 3.4 -5.3 7.2 -11.7 7.7 -13.2 16.4 -22.7 23.5 -26.1 10.8 -5.2 10.5 -5.2 124.7 -5.2 l106.2 0 -0.2 34.6 -0.3 34.6 -45.3 0.1 -45.3 0.2 0.1 84.3 0 84.2 -41 0 -41 0 0 -79.7 -0.1 -79.8 -5.4 5.9 c-2.9 3.3 -7.8 10.2 -10.8 15.5 -3 5.3 -15.6 27.2 -27.9 48.6 -12.3 21.5 -26.2 45.6 -30.9 53.8 l-8.4 14.7 -4.5 -0.2 c-4.2 -0.3 -4.6 -0.6 -6.9 -4.8 -1.3 -2.5 -7.9 -13.9 -14.6 -25.5 -6.7 -11.5 -19.3 -33.4 -28 -48.5 -22.9 -40 -28.9 -50 -33.1 -54.8 -3.3 -3.9 -3.8 -4.2 -4.7 -2.6 -0.7 1.2 -0.8 28.4 -0.3 79.6 l0.7 77.8 -41.5 0 -41.6 0 0 -83.2z"/>
  <path d="M304.3 529.4 c-1 -1.4 -2.7 -3.6 -3.8 -5 l-2 -2.4 -42 -0.5 c-23.1 -0.2 -43.2 -0.8 -44.7 -1.2 -8.3 -2.3 -1.2 -2.8 46 -3.1 l49.2 -0.2 0 7.5 c0 4.1 -0.2 7.5 -0.5 7.5 -0.2 0 -1.2 -1.2 -2.2 -2.6z"/>
  <path d="M302.9 484.3 c-1.8 -2.7 -3.7 -5.1 -4.3 -5.5 -0.6 -0.4 -26.4 -0.8 -57.3 -0.8 -54 0 -56.3 -0.1 -56.3 -1.8 0 -1.7 1.5 -1.9 19.7 -2.5 10.8 -0.4 38.2 -0.7 61 -0.7 l41.3 0 0 8 c0 4.4 -0.2 8 -0.5 8 -0.2 0 -1.9 -2.1 -3.6 -4.7z"/>
  <path d="M844.3 447.9 c-2.6 -2.8 -6.8 -6.3 -9.3 -7.7 l-4.5 -2.7 -46.5 -0.5 c-47.2 -0.6 -48.9 -0.7 -52 -4.4 -1.1 -1.4 1.8 -1.6 29.9 -1.6 21.8 0 31.9 -0.4 33.4 -1.2 1.3 -0.7 9 -1.3 19.2 -1.6 15.8 -0.4 17.4 -0.3 22.9 1.8 3.3 1.3 7.9 4.1 10.2 6.2 4 3.7 12 14.6 11.2 15.2 -0.1 0.2 -2.4 0.6 -5 0.9 -4.6 0.6 -4.8 0.6 -9.5 -4.4z"/>
  <path d="M302.6 439 l-3.6 -4.9 -81.9 -0.3 c-73.4 -0.3 -82.2 -0.5 -83.6 -1.9 -1.5 -1.4 -0.1 -1.6 15.7 -2.2 9.5 -0.4 48.9 -0.7 87.6 -0.7 l70.2 0 0 7.5 c0 4.1 -0.2 7.5 -0.4 7.5 -0.2 0 -2 -2.2 -4 -5z"/>
  <path d="M301.4 397.4 c-2.1 -2.5 -4.9 -5.1 -6.3 -5.8 -2 -1 -21.1 -1.5 -88.6 -2 -88 -0.7 -87.4 -0.7 -87.5 -4.3 0 -1.7 168.3 -1.9 174.5 -0.2 6.4 1.7 13.5 9.8 13.5 15.4 0 2.6 -1.7 1.7 -5.6 -3.1z"/>
 </g>
</svg>