<?xml version="1.0" encoding="utf-8"?>
<!-- Uploaded to: SVG Repo, www.svgrepo.com, Generator: SVG Repo Mixer Tools -->
<svg fill="#000000" version="1.1" id="Layer_1" xmlns="http://www.w3.org/2000/svg" xmlns:xlink="http://www.w3.org/1999/xlink" 
	 width="800px" height="800px" viewBox="0 0 256 124" enable-background="new 0 0 256 124" xml:space="preserve">
<path d="M64.538,75.664c-12.775,0-23.113,10.338-23.113,23.113s10.338,23.113,23.113,23.113c12.775,0,23.113-10.338,23.113-23.113
	S77.314,75.664,64.538,75.664z M64.538,107.63c-4.853,0-8.853-4-8.853-8.853c0-4.853,4-8.853,8.853-8.853
	c4.853,0,8.853,4,8.853,8.853C73.391,103.63,69.391,107.63,64.538,107.63z M210.043,75.679c-12.775,0-23.113,10.338-23.113,23.113
	s10.338,23.113,23.113,23.113c12.775,0,23.113-10.338,23.113-23.113S222.818,75.679,210.043,75.679z M210.043,107.646
	c-4.853,0-8.853-4-8.853-8.853c0-4.853,4-8.853,8.853-8.853c4.853,0,8.853,4,8.853,8.853
	C218.896,103.645,214.896,107.646,210.043,107.646z M2,85.644c0,4.481,3.519,8.114,8,8.356h22.349
	c0.924-0.242,1.68-0.914,1.848-1.755c2.521-14.456,15.129-24.482,30.341-24.482s27.82,10.026,30.341,24.482
	c0.168,0.924,0.924,1.513,1.849,1.755h3.195H131V45H2V85.644z M252,77h-5V56c0-7.396-5.52-14-13-14h-24
	c-0.504,0-1.099-0.064-1.435-0.4L171.163,5.195C169.482,3.514,167.437,2.084,165,2h-27v92h40c0.925,0,1.534-0.914,1.702-1.755
	c2.521-14.456,15.129-25.466,30.341-25.466s27.82,11.01,30.341,25.466C240.552,93.17,241.076,94,242,94h3c4.791,0,9-4.108,9-8.815
	v-6.219C254,78.041,253.009,77,252,77z M191,42h-41c-1.009,0-2-0.991-2-2V14c0-1.009,0.991-2,2-2h13
	c0.504,0,1.523,0.759,1.944,1.095l27.063,25.9C193.016,40.255,192.597,42,191,42z"/>
</svg>